<svg xmlns="http://www.w3.org/2000/svg" viewBox="0 0 332.31 438.8"><defs><style>.cls-1{fill:none;stroke:#dae000;stroke-miterlimit:10;stroke-width:5px;}.cls-2{fill:#fff;}</style></defs><g id="レイヤー_2" data-name="レイヤー 2"><g id="レイヤー_1-2" data-name="レイヤー 1"><rect class="cls-1" x="2.5" y="2.5" width="187.87" height="433.8"/><path class="cls-2" d="M75.43,122.49v6.33H64.74v29.41H57.22V128.82H46.48v-6.33Z"/><path class="cls-2" d="M98.23,132a7.78,7.78,0,0,1,3.28,2.59,7,7,0,0,1,1.32,3.05,35.91,35.91,0,0,1,.25,5.11v15.53H96V142.14a7.13,7.13,0,0,0-.72-3.45,3.63,3.63,0,0,0-3.57-1.84,4.88,4.88,0,0,0-4.12,1.83,8.41,8.41,0,0,0-1.41,5.23v14.32H79.29V122.61H86.2v12.61A8.45,8.45,0,0,1,89.66,132a9.69,9.69,0,0,1,4.14-.91A11.08,11.08,0,0,1,98.23,132Z"/><path class="cls-2" d="M126.8,132.34a10.74,10.74,0,0,1,4.57,3.91,13,13,0,0,1,2.1,5.46,33.79,33.79,0,0,1,.23,5.25H114.45q.17,4,2.76,5.57a7,7,0,0,0,3.81,1,5.35,5.35,0,0,0,5.26-3h7.06a8.62,8.62,0,0,1-2.56,4.77q-3.56,3.87-10,3.86a14.41,14.41,0,0,1-9.31-3.25q-4-3.25-4-10.58,0-6.87,3.64-10.54a12.76,12.76,0,0,1,9.45-3.66A15,15,0,0,1,126.8,132.34Zm-10.34,6a7.13,7.13,0,0,0-1.84,4.09h11.9a5.71,5.71,0,0,0-1.84-4.18,6,6,0,0,0-4.1-1.42A5.47,5.47,0,0,0,116.46,138.31Z"/><path class="cls-2" d="M158.05,158.23h-6.91V122.49h6.91Z"/><path class="cls-2" d="M171.68,131.8v15.93a8.28,8.28,0,0,0,.53,3.4,3.67,3.67,0,0,0,3.69,2,4.82,4.82,0,0,0,4.83-2.86,10.41,10.41,0,0,0,.67-4.1V131.8h7v26.43h-6.72V154.5c-.06.08-.22.32-.48.73a4.94,4.94,0,0,1-.92,1.06,9.48,9.48,0,0,1-3.13,2,10.54,10.54,0,0,1-3.54.54c-3.91,0-6.53-1.41-7.89-4.22a16.36,16.36,0,0,1-1.13-6.87V131.8Z"/><path class="cls-2" d="M192.5,158.23l9-13.38-8.64-13h8.47l4.41,7.66,4.32-7.66h8.22l-8.68,12.88,9,13.5H210l-4.55-7.94-4.59,7.94Z"/><path class="cls-2" d="M229.63,131.8v15.93a8.45,8.45,0,0,0,.53,3.4,3.68,3.68,0,0,0,3.7,2,4.82,4.82,0,0,0,4.82-2.86,10.39,10.39,0,0,0,.68-4.1V131.8h7v26.43h-6.72V154.5a7.39,7.39,0,0,0-.48.73,4.94,4.94,0,0,1-.92,1.06,9.51,9.51,0,0,1-3.14,2,10.46,10.46,0,0,1-3.54.54q-5.85,0-7.88-4.22a16.18,16.18,0,0,1-1.14-6.87V131.8Z"/><path class="cls-2" d="M267.77,131.18l.59,0v7.08c-.44-.05-.82-.08-1.16-.1l-.83,0c-2.78,0-4.65.9-5.6,2.72a10.56,10.56,0,0,0-.8,4.7v12.63h-7V131.8h6.6v4.61a14.39,14.39,0,0,1,2.78-3.61,7.59,7.59,0,0,1,5.05-1.63Z"/><path class="cls-2" d="M273.45,163.3l.88,0a11.26,11.26,0,0,0,1.94-.07,3.5,3.5,0,0,0,1.55-.56,3.74,3.74,0,0,0,1.12-1.72,4.09,4.09,0,0,0,.45-1.6l-9.71-27.6h7.69l5.77,19.5,5.46-19.5h7.34l-9.06,26q-2.62,7.51-4.15,9.32c-1,1.2-3.06,1.81-6.12,1.81h-1.48c-.38,0-.93,0-1.68-.09Z"/><path class="cls-2" d="M63.59,190.78l.59,0v7.09c-.44-.05-.82-.09-1.16-.1l-.83,0q-4.17,0-5.6,2.72a10.62,10.62,0,0,0-.8,4.7v12.64h-7V191.4h6.6V196a14.59,14.59,0,0,1,2.78-3.61,7.63,7.63,0,0,1,5-1.62Z"/><path class="cls-2" d="M85.45,191.93A10.75,10.75,0,0,1,90,195.84a13,13,0,0,1,2.11,5.47,33.9,33.9,0,0,1,.22,5.24H73.1q.16,4,2.77,5.58a7,7,0,0,0,3.81,1,5.87,5.87,0,0,0,3.84-1.21,5.77,5.77,0,0,0,1.42-1.82h7a8.61,8.61,0,0,1-2.56,4.78q-3.56,3.85-9.94,3.86a14.4,14.4,0,0,1-9.31-3.26q-4-3.24-4-10.58,0-6.87,3.65-10.53a12.73,12.73,0,0,1,9.45-3.67A15.1,15.1,0,0,1,85.45,191.93Zm-10.34,6A7.23,7.23,0,0,0,73.27,202H85.18a5.78,5.78,0,0,0-1.84-4.17,6.06,6.06,0,0,0-4.1-1.43A5.53,5.53,0,0,0,75.11,197.9Z"/><path class="cls-2" d="M101.21,209.39a4.55,4.55,0,0,0,1,2.62q1.29,1.38,4.77,1.38a7.26,7.26,0,0,0,3.26-.61,2,2,0,0,0,.23-3.58c-.65-.41-3.06-1.1-7.23-2.09q-4.5-1.11-6.35-2.79A6.07,6.07,0,0,1,95,199.57a8.23,8.23,0,0,1,2.88-6.29c1.92-1.76,4.62-2.63,8.11-2.63a14.84,14.84,0,0,1,8.07,2c2.09,1.32,3.28,3.59,3.59,6.83h-6.91a4.16,4.16,0,0,0-.75-2.11c-.77-.94-2.06-1.41-3.9-1.41a5.69,5.69,0,0,0-3.22.7,2,2,0,0,0-1,1.65,1.81,1.81,0,0,0,1,1.73,44.24,44.24,0,0,0,7.22,1.91,13.25,13.25,0,0,1,6.19,2.94,6.64,6.64,0,0,1,2,5,8,8,0,0,1-2.93,6.41q-2.92,2.49-9,2.49c-4.16,0-7.24-.88-9.22-2.64a8.52,8.52,0,0,1-3-6.7Z"/><path class="cls-2" d="M130.57,188.24h-7v-6.37h7Zm-7,3.16h7v26.43h-7Z"/><path class="cls-2" d="M151.28,191.82a8.31,8.31,0,0,1,3,2.92V182.13h7v35.7h-6.71v-3.66a9.76,9.76,0,0,1-3.37,3.42,9.51,9.51,0,0,1-4.71,1.06,9.84,9.84,0,0,1-7.8-3.74,14.41,14.41,0,0,1-3.16-9.62q0-6.76,3.12-10.64a10.11,10.11,0,0,1,8.33-3.88A8.51,8.51,0,0,1,151.28,191.82Zm1.7,18.83a9.62,9.62,0,0,0,1.53-5.65q0-4.84-2.45-6.93a5.28,5.28,0,0,0-3.49-1.27,4.85,4.85,0,0,0-4.45,2.3,12.35,12.35,0,0,0,0,11.54,4.88,4.88,0,0,0,4.38,2.19A5.08,5.08,0,0,0,153,210.65Z"/><path class="cls-2" d="M184.83,191.93a10.78,10.78,0,0,1,4.56,3.91,12.86,12.86,0,0,1,2.11,5.47,33.65,33.65,0,0,1,.23,5.24H172.48c.1,2.65,1,4.51,2.76,5.58a7.06,7.06,0,0,0,3.81,1,5.83,5.83,0,0,0,3.84-1.21,5.63,5.63,0,0,0,1.42-1.82h7.06a8.68,8.68,0,0,1-2.56,4.78q-3.56,3.85-9.95,3.86a14.4,14.4,0,0,1-9.31-3.26q-4-3.24-4-10.58,0-6.87,3.64-10.53a12.76,12.76,0,0,1,9.45-3.67A15.18,15.18,0,0,1,184.83,191.93Zm-10.34,6a7.16,7.16,0,0,0-1.84,4.09h11.9a5.74,5.74,0,0,0-1.84-4.17,6.06,6.06,0,0,0-4.1-1.43A5.49,5.49,0,0,0,174.49,197.9Z"/><path class="cls-2" d="M216.54,192.91c1.73,1.43,2.59,3.81,2.59,7.12v17.8h-7.08V201.75a7.36,7.36,0,0,0-.55-3.2,3.89,3.89,0,0,0-3.85-2,4.77,4.77,0,0,0-4.79,3,10.27,10.27,0,0,0-.68,4v14.31h-6.91V191.45H202v3.85a11.58,11.58,0,0,1,2.52-2.93,8.66,8.66,0,0,1,5.38-1.6A10.14,10.14,0,0,1,216.54,192.91Z"/><path class="cls-2" d="M241.37,200.88a6.05,6.05,0,0,0-1-2.67,4.16,4.16,0,0,0-3.62-1.6,4.78,4.78,0,0,0-4.79,3.47,14.44,14.44,0,0,0-.68,4.88,13.29,13.29,0,0,0,.68,4.67,4.63,4.63,0,0,0,4.67,3.3,4.13,4.13,0,0,0,3.45-1.31,6.44,6.44,0,0,0,1.24-3.39h7.06a11.5,11.5,0,0,1-2.28,6q-3.25,4.53-9.64,4.54t-9.39-3.79a15.25,15.25,0,0,1-3-9.81q0-6.8,3.32-10.58a11.6,11.6,0,0,1,9.18-3.78A13.81,13.81,0,0,1,244.7,193q3.17,2.22,3.75,7.88Z"/><path class="cls-2" d="M270.4,191.93a10.75,10.75,0,0,1,4.57,3.91,13,13,0,0,1,2.11,5.47,33.9,33.9,0,0,1,.22,5.24H258.05q.17,4,2.77,5.58a7,7,0,0,0,3.81,1,5.87,5.87,0,0,0,3.84-1.21,5.77,5.77,0,0,0,1.42-1.82h7.05a8.61,8.61,0,0,1-2.56,4.78q-3.56,3.85-9.94,3.86a14.4,14.4,0,0,1-9.31-3.26q-4-3.24-4-10.58,0-6.87,3.65-10.53a12.73,12.73,0,0,1,9.45-3.67A15.1,15.1,0,0,1,270.4,191.93Zm-10.34,6a7.23,7.23,0,0,0-1.84,4.09h11.91a5.78,5.78,0,0,0-1.84-4.17,6.06,6.06,0,0,0-4.1-1.43A5.53,5.53,0,0,0,260.06,197.9Z"/><path class="cls-2" d="M301.7,188.24h-7v-6.37h7Zm-7,3.16h7v26.43h-7Z"/><path class="cls-2" d="M329.71,192.91c1.73,1.43,2.6,3.81,2.6,7.12v17.8h-7.09V201.75a7.36,7.36,0,0,0-.55-3.2c-.67-1.36-2-2-3.85-2a4.78,4.78,0,0,0-4.79,3,10.27,10.27,0,0,0-.68,4v14.31h-6.91V191.45h6.7v3.85a11.37,11.37,0,0,1,2.51-2.93,8.66,8.66,0,0,1,5.38-1.6A10.14,10.14,0,0,1,329.71,192.91Z"/><path class="cls-2" d="M59.84,241.35l1.45.11v5.63c-.38-.05-1-.09-1.95-.11a2.26,2.26,0,0,0-1.89.61,2.16,2.16,0,0,0-.52,1.41v2.23h4.53v4.88H56.93v21.31H50.07V256.11H46.19v-4.88H50v-1.69q0-4.24,1.43-5.85,1.5-2.37,7.25-2.37C59.09,241.32,59.48,241.33,59.84,241.35Z"/><path class="cls-2" d="M87.48,274.19q-3.35,4.13-10.16,4.13t-10.16-4.13a16.42,16.42,0,0,1,0-19.85q3.34-4.2,10.16-4.2t10.16,4.2a16.38,16.38,0,0,1,0,19.85ZM82,270.37a12.37,12.37,0,0,0,0-12.24,6.15,6.15,0,0,0-9.33,0,12.24,12.24,0,0,0,0,12.24,6.12,6.12,0,0,0,9.33,0Z"/><path class="cls-2" d="M110.46,250.37l.59,0v7.08c-.43-.05-.82-.08-1.16-.1l-.82,0c-2.79,0-4.65.91-5.61,2.72a10.56,10.56,0,0,0-.8,4.7v12.63h-7V251h6.6v4.61a14.62,14.62,0,0,1,2.79-3.61,7.54,7.54,0,0,1,5-1.63Z"/><path class="cls-2" d="M132.33,251.53a10.71,10.71,0,0,1,4.56,3.91A12.87,12.87,0,0,1,139,260.9a33.86,33.86,0,0,1,.23,5.25H120c.1,2.65,1,4.51,2.76,5.58a7.06,7.06,0,0,0,3.81,1,5.35,5.35,0,0,0,5.26-3h7.06a8.68,8.68,0,0,1-2.56,4.78q-3.56,3.86-10,3.85a14.39,14.39,0,0,1-9.31-3.25q-4-3.26-4-10.58,0-6.87,3.64-10.54a12.76,12.76,0,0,1,9.45-3.66A15,15,0,0,1,132.33,251.53Zm-10.34,6a7.13,7.13,0,0,0-1.84,4.09h11.9a5.75,5.75,0,0,0-1.84-4.18,6.05,6.05,0,0,0-4.1-1.42A5.45,5.45,0,0,0,122,257.5Z"/><path class="cls-2" d="M148.08,269a4.65,4.65,0,0,0,.95,2.61c.86.93,2.46,1.39,4.78,1.39a7.35,7.35,0,0,0,3.25-.61,1.93,1.93,0,0,0,1.21-1.82,2,2,0,0,0-1-1.77c-.65-.4-3.06-1.1-7.23-2.08-3-.75-5.12-1.68-6.35-2.79a6.06,6.06,0,0,1-1.85-4.76,8.24,8.24,0,0,1,2.88-6.29c1.92-1.75,4.63-2.63,8.11-2.63a14.88,14.88,0,0,1,8.08,2c2.08,1.31,3.28,3.59,3.58,6.82h-6.91a4.07,4.07,0,0,0-.75-2.11,4.77,4.77,0,0,0-3.89-1.4,5.58,5.58,0,0,0-3.22.7,2,2,0,0,0-1,1.65,1.8,1.8,0,0,0,1,1.72,44.61,44.61,0,0,0,7.21,1.92,13.11,13.11,0,0,1,6.19,2.93,6.66,6.66,0,0,1,2,5,8,8,0,0,1-2.93,6.42q-2.92,2.48-9,2.48t-9.22-2.63a8.56,8.56,0,0,1-3-6.7Z"/><path class="cls-2" d="M167.63,256.16v-4.93h3.68v-7.37h6.84v7.37h4.29v4.93h-4.29v14a3.18,3.18,0,0,0,.41,2,4.55,4.55,0,0,0,2.53.4h.66l.69,0v5.17l-3.27.12c-3.27.11-5.5-.45-6.69-1.7a5,5,0,0,1-1.17-3.66V256.16Z"/><path class="cls-2" d="M49.6,58.54l1.17,4.78L52,58.54H53.1l1.18,4.75,1.24-4.75h1L54.78,64.6H53.72l-1.23-4.69L51.3,64.6H50.24l-1.75-6.06Z"/><path class="cls-2" d="M70.51,58.71a2.23,2.23,0,0,1,.92.78,2.88,2.88,0,0,1,.41,1.07,7.11,7.11,0,0,1,.09,1.34H67.52A2.6,2.6,0,0,0,68,63.38a1.43,1.43,0,0,0,1.25.56,1.6,1.6,0,0,0,1.27-.53,1.79,1.79,0,0,0,.37-.71h1a2.24,2.24,0,0,1-.26.75,3,3,0,0,1-.5.67,2.43,2.43,0,0,1-1.14.61,3.46,3.46,0,0,1-.83.09,2.54,2.54,0,0,1-1.9-.82,3.23,3.23,0,0,1-.78-2.31,3.53,3.53,0,0,1,.78-2.37,2.59,2.59,0,0,1,2.06-.91A2.73,2.73,0,0,1,70.51,58.71Zm.37,2.38A2.67,2.67,0,0,0,70.59,60a1.45,1.45,0,0,0-1.38-.73,1.51,1.51,0,0,0-1.17.5,2,2,0,0,0-.5,1.29Z"/><path class="cls-2" d="M83,58.54l1.16,4.78,1.19-4.78h1.14l1.19,4.75,1.24-4.75h1L88.14,64.6H87.08l-1.23-4.69-1.2,4.69H83.59l-1.75-6.06Z"/><path class="cls-2" d="M104.52,59.15a3.07,3.07,0,0,1,.8,2.29,4,4,0,0,1-.71,2.42,2.54,2.54,0,0,1-2.19,1,2.47,2.47,0,0,1-2-.85,3.38,3.38,0,0,1-.73-2.27,3.67,3.67,0,0,1,.77-2.43,2.59,2.59,0,0,1,2.07-.9A2.72,2.72,0,0,1,104.52,59.15Zm-.64,4a3.84,3.84,0,0,0,.38-1.71,3.08,3.08,0,0,0-.27-1.38,1.52,1.52,0,0,0-1.47-.83,1.43,1.43,0,0,0-1.34.71,3.32,3.32,0,0,0-.42,1.72,2.9,2.9,0,0,0,.42,1.61,1.46,1.46,0,0,0,1.33.64A1.37,1.37,0,0,0,103.88,63.18Z"/><path class="cls-2" d="M115.87,58.54h1v1.05a2.31,2.31,0,0,1,.58-.74,1.49,1.49,0,0,1,1.07-.44h.1l.23,0v1.07l-.17,0h-.17a1.46,1.46,0,0,0-1.18.5,1.75,1.75,0,0,0-.41,1.14V64.6h-1Z"/><path class="cls-2" d="M129,56.29h1v4.83l2.61-2.58h1.3l-2.33,2.26L134,64.6h-1.3l-1.91-3.08-.83.81V64.6h-1Z"/><path class="cls-2" d="M54.38,380.22h-1v-3.73c0-1-.37-1.93-1.47-1.93a1.71,1.71,0,0,0-1.65,1.79v3.87h-1v-4.69c0-.65,0-1.12,0-1.63h.85l.06,1h0a2.25,2.25,0,0,1,2-1.17c.79,0,2.13.47,2.13,2.62Z"/><path class="cls-2" d="M65,378.72a8.9,8.9,0,0,0,.09,1.5h-.88l-.09-.81h0a2.21,2.21,0,0,1-1.87.95,1.75,1.75,0,0,1-1.84-1.79c0-1.52,1.32-2.34,3.66-2.33,0-.53,0-1.74-1.44-1.74a2.75,2.75,0,0,0-1.54.45l-.23-.66a3.66,3.66,0,0,1,1.93-.53c1.78,0,2.24,1.26,2.24,2.51Zm-1-1.77c-1.19,0-2.68.17-2.68,1.5a1,1,0,0,0,1.08,1.17,1.54,1.54,0,0,0,1.6-1.48Z"/><path class="cls-2" d="M80.11,380.22h-1v-3.65c0-1.22-.44-2-1.39-2a1.6,1.6,0,0,0-1.48,1.69v4h-1v-3.89c0-1-.43-1.77-1.32-1.77a1.71,1.71,0,0,0-1.56,1.79v3.87h-.95v-4.69c0-.65,0-1.11,0-1.63h.84l.06,1h0a2.08,2.08,0,0,1,1.92-1.16A1.79,1.79,0,0,1,76.05,375h0a2.2,2.2,0,0,1,2-1.26c.78,0,2,.5,2,2.66Z"/><path class="cls-2" d="M87.6,374.93a2.24,2.24,0,0,1,2.09-1.17c1.5,0,2.55,1.29,2.55,3.23,0,2.29-1.4,3.37-2.71,3.37a2.17,2.17,0,0,1-2-1.18h0l-.06,1h-.83c0-.41,0-1.05,0-1.56V371h1v4Zm0,2.83a1.78,1.78,0,0,0,1.78,1.81c1.22,0,1.91-1.05,1.91-2.54,0-1.32-.65-2.48-1.88-2.48a1.92,1.92,0,0,0-1.81,1.95Z"/><path class="cls-2" d="M102.46,378.72a7.93,7.93,0,0,0,.1,1.5h-.88l-.1-.81h0a2.2,2.2,0,0,1-1.87.95,1.75,1.75,0,0,1-1.84-1.79c0-1.52,1.32-2.34,3.66-2.33,0-.53,0-1.74-1.43-1.74a2.7,2.7,0,0,0-1.54.45l-.24-.66a3.66,3.66,0,0,1,1.93-.53c1.78,0,2.24,1.26,2.24,2.51Zm-.95-1.77c-1.19,0-2.68.17-2.68,1.5a1.05,1.05,0,0,0,1.09,1.17,1.54,1.54,0,0,0,1.59-1.48Z"/><path class="cls-2" d="M119.24,374.87a2.25,2.25,0,0,0-1.22-.37,1,1,0,0,0-1.07.94c0,.54.36.8,1.17,1.15,1,.41,1.61,1,1.61,1.9,0,1.12-.86,1.86-2.24,1.86a3.28,3.28,0,0,1-1.65-.43l.26-.74a3,3,0,0,0,1.43.43c.84,0,1.26-.45,1.26-1s-.33-.92-1.17-1.25c-1.06-.43-1.61-1-1.61-1.78a1.87,1.87,0,0,1,2.06-1.8,2.75,2.75,0,0,1,1.45.38Z"/><path class="cls-2" d="M130.74,380.22h-1.18l-2.18-3.11-.58.66v2.45h-1V371h1v5.89h0a7.36,7.36,0,0,1,.55-.7l1.88-2.24h1.16L128,376.52Z"/><path class="cls-2" d="M141,373.91l-1.68,4.47c-.75,2.05-1.28,3.23-2.07,4a3,3,0,0,1-1.29.74l-.26-.81a3.6,3.6,0,0,0,2-2.27,1,1,0,0,0-.07-.26l-2.24-5.84h1.06l1.37,3.83c.17.44.3.94.41,1.32h0c.11-.38.26-.85.41-1.34l1.27-3.81Z"/><path class="cls-2" d="M152.06,377c0,2.36-1.55,3.35-3,3.35-1.62,0-2.87-1.21-2.87-3.25s1.35-3.35,3-3.35S152.06,375.08,152.06,377Zm-2.91-2.5c-1.36,0-1.93,1.35-1.93,2.56,0,1.4.77,2.54,1.91,2.54s1.94-1.14,1.94-2.56C151.07,375.93,150.53,374.51,149.15,374.51Z"/></g></g></svg>